<?xml version="1.0" standalone="no"?><!DOCTYPE svg PUBLIC "-//W3C//DTD SVG 1.1//EN" "http://www.w3.org/Graphics/SVG/1.1/DTD/svg11.dtd"><svg t="1600673370763" class="icon" viewBox="0 0 1024 1024" version="1.1" xmlns="http://www.w3.org/2000/svg" p-id="2074" xmlns:xlink="http://www.w3.org/1999/xlink" width="200" height="200"><defs><style type="text/css"></style></defs><path d="M769.969231 181.405538l95.291077-19.456a46.710154 46.710154 0 0 1 49.762461 22.331077l83.022769 143.43877c10.043077 17.348923 7.837538 39.168-5.494153 54.153846l-64.512 72.566154a420.706462 420.706462 0 0 1 0 115.12123l64.512 72.566154c13.331692 14.985846 15.537231 36.804923 5.494153 54.153846l-83.022769 143.43877a46.710154 46.710154 0 0 1-49.762461 22.331077l-95.291077-19.456a419.367385 419.367385 0 0 1-99.938462 57.639384l-30.72 91.923692A46.670769 46.670769 0 0 1 595.022769 1024h-166.065231a46.651077 46.651077 0 0 1-44.268307-31.822769l-30.72-91.923693a419.643077 419.643077 0 0 1-99.938462-57.639384l-95.291077 19.456a46.710154 46.710154 0 0 1-49.762461-22.331077l-83.022769-143.438769a46.434462 46.434462 0 0 1 5.494153-54.153846l64.512-72.566154a420.706462 420.706462 0 0 1 0-115.121231l-64.512-72.566154a46.434462 46.434462 0 0 1-5.494153-54.153846l83.022769-143.438769a46.710154 46.710154 0 0 1 49.762461-22.331077l95.291077 19.436307a419.367385 419.367385 0 0 1 99.938462-57.639384l30.72-91.923692A46.670769 46.670769 0 0 1 428.977231 0h166.065231c20.086154 0 37.927385 12.819692 44.268307 31.822769l30.72 91.923693A420.096 420.096 0 0 1 769.969231 181.405538zM512 630.153846a118.153846 118.153846 0 1 0 0-236.307692 118.153846 118.153846 0 0 0 0 236.307692z" fill="#C1C1C1" p-id="2075"></path><path d="M769.969231 181.405538l95.291077-19.456a46.710154 46.710154 0 0 1 49.762461 22.331077l83.022769 143.43877c10.043077 17.348923 7.837538 39.168-5.494153 54.153846l-64.512 72.566154a420.706462 420.706462 0 0 1 0 115.12123l64.512 72.566154c13.331692 14.985846 15.537231 36.804923 5.494153 54.153846l-83.022769 143.43877a46.710154 46.710154 0 0 1-49.762461 22.331077l-95.291077-19.456a419.367385 419.367385 0 0 1-99.938462 57.639384l-30.72 91.923692A46.670769 46.670769 0 0 1 595.022769 1024h-166.065231a46.651077 46.651077 0 0 1-44.268307-31.822769l-30.72-91.923693a419.643077 419.643077 0 0 1-99.938462-57.639384l-95.291077 19.456a46.710154 46.710154 0 0 1-49.762461-22.331077l-83.022769-143.438769a46.434462 46.434462 0 0 1 5.494153-54.153846l64.512-72.566154a420.706462 420.706462 0 0 1 0-115.121231l-64.512-72.566154a46.434462 46.434462 0 0 1-5.494153-54.153846l83.022769-143.438769a46.710154 46.710154 0 0 1 49.762461-22.331077l95.291077 19.436307a419.367385 419.367385 0 0 1 99.938462-57.639384l30.72-91.923692A46.670769 46.670769 0 0 1 428.977231 0h166.065231c20.086154 0 37.927385 12.819692 44.268307 31.822769l30.72 91.923693A420.096 420.096 0 0 1 769.969231 181.405538zM452.056615 78.769231l-34.875077 104.349538-33.614769 13.627077a340.952615 340.952615 0 0 0-81.191384 46.828308l-28.593231 22.232615-108.209231-22.094769-59.766154 103.266462 73.117539 82.254769-4.962462 35.958154a345.245538 345.245538 0 0 0 0.019692 93.61723l4.962462 35.958154-73.137231 82.254769 59.746462 103.227077 108.209231-22.094769 28.59323 22.232616a340.952615 340.952615 0 0 0 81.191385 46.828307l33.614769 13.627077L452.056615 945.230769h119.867077l34.875077-104.349538 33.614769-13.627077a340.952615 340.952615 0 0 0 81.191385-46.828308l28.593231-22.232615 108.209231 22.094769 59.746461-103.227077-73.117538-82.254769 4.962461-35.958154c2.126769-15.399385 3.190154-31.035077 3.190154-46.808615s-1.063385-31.409231-3.190154-46.808616l-4.962461-35.958154 73.117538-82.254769-59.746461-103.227077-108.209231 22.094769-28.593231-22.232615a340.952615 340.952615 0 0 0-81.191385-46.828308l-33.614769-13.627077L571.943385 78.769231h-119.88677zM512 708.923077c-108.760615 0-196.923077-88.162462-196.923077-196.923077s88.162462-196.923077 196.923077-196.923077 196.923077 88.162462 196.923077 196.923077-88.162462 196.923077-196.923077 196.923077z m0-78.769231a118.153846 118.153846 0 1 0 0-236.307692 118.153846 118.153846 0 0 0 0 236.307692z" fill="#333333" p-id="2076"></path></svg>